<?xml version="1.0" encoding="UTF-8" standalone="no"?>
<!DOCTYPE svg PUBLIC "-//W3C//DTD SVG 1.1//EN" "http://www.w3.org/Graphics/SVG/1.1/DTD/svg11.dtd">
<svg width="100%" height="100%" viewBox="0 0 248 248" version="1.1" xmlns="http://www.w3.org/2000/svg" xmlns:xlink="http://www.w3.org/1999/xlink" xml:space="preserve" xmlns:serif="http://www.serif.com/" style="fill-rule:evenodd;clip-rule:evenodd;stroke-linejoin:round;stroke-miterlimit:2;">
    <g transform="matrix(1,0,0,1,-925.958,0)">
        <g id="Artboard1" transform="matrix(0.255616,0,0,0.611524,917.615,338.69)">
            <rect x="32.642" y="-553.845" width="969.796" height="404.713" style="fill:none;"/>
            <g transform="matrix(7.37416,0,0,3.08238,-205.147,1117.43)">
                <g transform="matrix(0.345797,-0.199646,0.199646,0.345797,-101.103,-531.683)">
                    <path d="M366.289,231.539C367.2,229.96 368.884,228.988 370.707,228.988C372.529,228.988 374.213,229.96 375.125,231.539C388.816,255.252 430.833,328.029 451.166,363.246C453.487,367.267 453.487,372.221 451.166,376.241C448.845,380.262 444.555,382.739 439.912,382.739L278.994,382.739C278.994,382.739 347.977,263.255 366.289,231.539Z" style="fill:rgb(170,255,0);"/>
                </g>
                <g transform="matrix(-0.344385,0.19883,-0.19883,-0.344385,292.29,-442.617)">
                    <path d="M440.867,345.408L454.03,368.207C455.761,371.204 455.761,374.897 454.03,377.895C452.3,380.892 449.101,382.738 445.64,382.739L419.314,382.739L440.867,345.408Z" style="fill:rgb(98,194,0);"/>
                </g>
                <g transform="matrix(0.344385,-0.19883,0.19883,0.344385,-111.389,-483.691)">
                    <path d="M373.477,219.09C371.746,222.087 371.746,225.78 373.476,228.777L386.64,251.577L386.667,251.53C386.667,251.53 419.163,303.057 431.527,322.661C433.768,326.215 433.855,330.718 431.754,334.357C431.755,334.358 431.755,334.358 431.755,334.358C428.752,339.56 430.537,346.222 435.739,349.225C437.639,350.322 439.734,350.78 441.774,350.666C446.133,350.432 450.277,352.575 452.605,356.267C460.118,367.996 473.381,389.025 473.381,389.025C475.111,392.022 475.111,395.715 473.381,398.712C471.65,401.71 468.452,403.556 464.991,403.556L405.638,403.556C402.077,403.556 398.787,401.657 397.006,398.573L333.5,301.275C331.188,297.27 331.188,292.336 333.5,288.331L373.477,219.09ZM373.477,219.09L373.785,218.556L373.802,218.566C373.688,218.736 373.58,218.911 373.477,219.09Z" style="fill:rgb(170,255,0);"/>
                </g>
            </g>
        </g>
    </g>
</svg>
